<svg xmlns="http://www.w3.org/2000/svg" width="602.26" height="86.917" viewBox="0 0 602.26 86.917"><g id="Group_1588" data-name="Group 1588" transform="translate(69.26 -26.13)"><g id="Group_1587" data-name="Group 1587" transform="translate(-69.26 26.13)"><g id="Group_1586" data-name="Group 1586"><g id="Group_1585" data-name="Group 1585"><path id="Path_1098" data-name="Path 1098" d="M185.9,37.89C182.234,14.773,134,3.214,78.13,12.053,52.1,16.171,29.025,23.99,12.14,33.546v53H129.2C165.085,74.455,188.655,55.38,185.9,37.89Z" transform="translate(-11.989 0.373)" fill="#fff"></path><line id="Line_43" data-name="Line 43" x2="379.887" transform="translate(212.249 52.316)" fill="#005596" stroke="#fff" stroke-width="1"></line><path id="Path_1099" data-name="Path 1099" d="M94.831,17.588a13.629,13.629,0,0,0-1.549-4.533c-.869-1.171-1.662-1.549-5.477-1.549H84.293V36.248c0,3.928.415,4.457,5.137,4.759v1.4H75.076v-1.4c4.571-.3,4.986-.793,4.986-4.759V11.506h-3.1c-4.155,0-5.175.416-5.817,1.549a16.271,16.271,0,0,0-1.624,4.533H68.05c.264-3.06.491-6.308.6-9.028h1.02c.718,1.171,1.36,1.247,2.757,1.247H92.263A2.53,2.53,0,0,0,94.756,8.56h1.058c.038,2.266.264,5.968.567,8.877Z" transform="translate(143.293 -1.082)" fill="#fff"></path><path id="Path_1100" data-name="Path 1100" d="M95.641,29.587c-.227,1.247-.982,4.8-1.322,5.968H76.15V34.5c3.437-.264,3.74-.567,3.74-3.664v-15c0-3.362-.3-3.513-3.249-3.777V11.04H93.45c0,.907.189,3.475.3,5.439l-1.1.151a9.193,9.193,0,0,0-1.209-3.211c-.529-.831-1.549-1.1-4.268-1.1H84.309c-1.171,0-1.247.113-1.247,1.209v8.575h3.551c3.437,0,3.626-.3,4.08-2.833h1.1v7.215h-1.1c-.491-2.682-.755-2.909-4.042-2.909H83.063v7.1c0,1.775.227,2.606.907,3.06.718.491,2.04.491,3.928.491,2.871,0,3.928-.3,4.759-1.284A11.787,11.787,0,0,0,94.546,29.4Z" transform="translate(165.789 5.807)" fill="#fff"></path><path id="Path_1101" data-name="Path 1101" d="M108.03,12.1c-2.115.113-3.022.6-3.173,2.229a53.786,53.786,0,0,0-.227,6.384V35.895H103.5L87.444,16.177h-.076v9.443a61.943,61.943,0,0,0,.227,6.346c.189,1.926,1.058,2.38,3.626,2.531v1.058H82.307V34.5c2.153-.151,3.135-.6,3.324-2.455.113-1.171.227-3.022.227-6.459V17.31c0-2.757-.076-2.909-.755-3.815-.793-.944-1.586-1.247-3.362-1.4V11.04h5.553l15.751,18.887h.113V20.71a47.686,47.686,0,0,0-.264-6.27c-.189-1.7-1.058-2.191-3.7-2.342V11.04h8.877V12.1Z" transform="translate(181.314 5.807)" fill="#fff"></path><path id="Path_1102" data-name="Path 1102" d="M115.5,12.1c-2.115.113-3.022.6-3.173,2.229a53.786,53.786,0,0,0-.227,6.384V35.895h-1.171L94.872,16.177H94.8v9.443a61.943,61.943,0,0,0,.227,6.346c.189,1.926,1.058,2.38,3.626,2.531v1.058H89.7V34.5c2.153-.151,3.135-.6,3.324-2.455.113-1.171.227-3.022.227-6.459V17.31c0-2.757-.076-2.909-.755-3.815-.793-.944-1.586-1.247-3.362-1.4V11.04h5.515L110.4,29.927h.113V20.71a47.686,47.686,0,0,0-.264-6.27c-.189-1.7-1.058-2.191-3.7-2.342V11.04h8.877V12.1Z" transform="translate(201.838 5.807)" fill="#fff"></path><path id="Path_1103" data-name="Path 1103" d="M116.121,29.587c-.227,1.247-.982,4.8-1.322,5.968H96.63V34.5c3.437-.264,3.74-.567,3.74-3.664v-15c0-3.362-.3-3.513-3.249-3.777V11.04H113.93c0,.907.189,3.475.3,5.439l-1.1.151a9.192,9.192,0,0,0-1.209-3.211c-.529-.831-1.549-1.1-4.268-1.1h-2.833c-1.171,0-1.247.113-1.247,1.209v8.575h3.551c3.437,0,3.626-.3,4.08-2.833h1.1v7.215h-1.1c-.491-2.682-.755-2.909-4.042-2.909H103.58v7.1c0,1.775.227,2.606.907,3.06.718.491,2.04.491,3.928.491,2.871,0,3.928-.3,4.759-1.284a11.787,11.787,0,0,0,1.889-3.551Z" transform="translate(222.669 5.807)" fill="#fff"></path><path id="Path_1104" data-name="Path 1104" d="M115.215,17.133c-.642-2.38-1.662-4.986-4.948-4.986a3.935,3.935,0,0,0-4.193,4.117c0,2.757,1.813,4.08,4.8,5.59,2.984,1.549,6.5,3.286,6.5,7.517,0,3.966-3.362,7.1-8.348,7.1a12.923,12.923,0,0,1-3.7-.567,16.692,16.692,0,0,1-1.889-.793c-.264-.793-.755-4.042-1.02-5.817l1.133-.264c.567,2.3,2.266,6.119,6.195,6.119a4.188,4.188,0,0,0,4.533-4.533c0-2.8-2.078-4.117-4.911-5.628-2.417-1.322-6.233-3.173-6.233-7.4,0-3.626,2.909-6.686,7.744-6.686a15.676,15.676,0,0,1,4.759.869c.151,1.36.34,2.833.642,5.213Z" transform="translate(238.722 5.418)" fill="#fff"></path><path id="Path_1105" data-name="Path 1105" d="M119.945,17.133c-.642-2.38-1.662-4.986-4.948-4.986a3.935,3.935,0,0,0-4.193,4.117c0,2.757,1.813,4.08,4.8,5.59,2.984,1.549,6.5,3.286,6.5,7.517,0,3.966-3.362,7.1-8.348,7.1a12.923,12.923,0,0,1-3.7-.567,16.689,16.689,0,0,1-1.889-.793c-.264-.793-.755-4.042-1.02-5.817l1.133-.264c.567,2.3,2.266,6.119,6.195,6.119A4.188,4.188,0,0,0,119,30.618c0-2.8-2.078-4.117-4.873-5.628-2.417-1.322-6.233-3.173-6.233-7.4,0-3.626,2.909-6.686,7.781-6.686a15.216,15.216,0,0,1,4.722.869c.151,1.36.34,2.833.642,5.213Z" transform="translate(251.859 5.418)" fill="#fff"></path><path id="Path_1106" data-name="Path 1106" d="M131.121,29.587c-.227,1.247-.982,4.8-1.322,5.968H111.63V34.5c3.437-.264,3.74-.567,3.74-3.664v-15c0-3.362-.3-3.513-3.249-3.777V11.04H128.93c0,.907.189,3.475.3,5.439l-1.1.151a9.192,9.192,0,0,0-1.209-3.211c-.529-.831-1.549-1.1-4.268-1.1h-2.871c-1.171,0-1.247.113-1.247,1.209v8.575h3.551c3.437,0,3.626-.3,4.08-2.833h1.1v7.215h-1.1c-.491-2.682-.755-2.909-4.042-2.909h-3.588v7.1c0,1.775.227,2.606.907,3.06.718.491,2.04.491,3.928.491,2.871,0,3.928-.3,4.759-1.284a11.787,11.787,0,0,0,1.889-3.551Z" transform="translate(264.329 5.807)" fill="#fff"></path><path id="Path_1107" data-name="Path 1107" d="M136.791,29.587c-.227,1.247-.982,4.8-1.322,5.968H117.3V34.5c3.437-.264,3.74-.567,3.74-3.664v-15c0-3.362-.3-3.513-3.249-3.777V11.04H134.6c0,.907.189,3.475.3,5.439l-1.1.151A9.193,9.193,0,0,0,132.6,13.42c-.529-.831-1.549-1.1-4.268-1.1h-2.871c-1.171,0-1.247.113-1.247,1.209v8.575h3.551c3.437,0,3.626-.3,4.08-2.833h1.1v7.215h-1.1c-.491-2.682-.755-2.909-4.042-2.909h-3.588v7.1c0,1.775.227,2.606.907,3.06.718.491,2.04.491,3.928.491,2.871,0,3.928-.3,4.759-1.284A11.787,11.787,0,0,0,135.7,29.4Z" transform="translate(280.077 5.807)" fill="#fff"></path><path id="Path_1108" data-name="Path 1108" d="M127,16.9c0-5.439-.416-5.779-3.626-6.082V8.89h15.676c7.1,0,11.256,2.04,11.256,7.441,0,4.382-4.155,6.686-7.026,7.026v.113c4.8.567,8.877,3.211,8.877,8.5a8.354,8.354,0,0,1-4.533,7.63c-2.417,1.4-5.93,1.964-10.085,1.964H123.07V39.6c3.513-.3,3.928-.642,3.928-6.082V16.9Zm8.046,5.968h1.624c2.909,0,5.137-1.851,5.137-5.893,0-4.419-2.644-5.628-4.457-5.628-1.247,0-1.813.151-1.964.3-.264.151-.3,1.209-.3,2.569v8.65Zm0,10.765c0,4.533,1.1,5.364,2.984,5.364,2-.038,5.062-1.662,5.062-6.573,0-5.062-3.06-7.215-6.573-7.215h-1.473Z" transform="translate(296.102 -0.166)" fill="#fff"></path><path id="Path_1109" data-name="Path 1109" d="M144.186,34.471l1.133-.151c1.4-.189,1.473-.567.982-1.926l-1.36-3.853h-6.157l-1.133,3.626c-.491,1.624-.491,2,1.247,2.191l1.1.113v1.473H131.23V34.471c1.926-.264,2.493-.416,3.74-3.588l7.555-19.453,2.606-.529,2.569,7.139c1.624,4.5,3.248,8.915,4.684,12.767,1.209,3.286,1.889,3.475,3.74,3.7v1.473H144.3V34.471Zm-4.759-8.2h4.835l-2.38-7.177h-.113Z" transform="translate(318.765 5.418)" fill="#fff"></path><path id="Path_1110" data-name="Path 1110" d="M161.043,35.819h-3.249L143.856,18.028h-.076v6.913a58.675,58.675,0,0,0,.3,7.177c.189,1.322,1.209,1.813,3.7,1.926v1.473h-9.368V34.044c1.662-.076,2.644-.6,2.833-1.926a59.189,59.189,0,0,0,.3-7.177V18.028c0-2.8-.076-3.286-.831-4.344-.567-.793-1.511-1.058-2.871-1.171V11.04h8.31L158.7,26.678h.076V21.617a58.68,58.68,0,0,0-.3-7.177c-.189-1.322-1.209-1.813-3.7-1.926V11.04h9.594v1.473c-1.889.076-2.871.6-3.06,1.926a59.17,59.17,0,0,0-.3,7.177v14.2Z" transform="translate(337.151 5.807)" fill="#fff"></path><path id="Path_1111" data-name="Path 1111" d="M154.242,29.511c0,4.08.3,4.344,2.984,4.571v1.473H145.479V34.082c2.455-.227,2.757-.491,2.757-4.571V17.084c0-4.08-.3-4.344-2.946-4.571V11.04h11.747v1.473c-2.493.227-2.8.491-2.8,4.571v5.855c2.757-3.1,5.062-5.855,7.253-8.726.529-.68.944-1.435-.076-1.549l-1.435-.151V11.04h10.086v1.473a7.115,7.115,0,0,0-5.288,2.342c-2.04,1.964-3.928,3.891-5.515,5.742,2.342,3.588,4.835,7.026,7.177,10.2,2.04,2.72,2.72,3.1,4.268,3.286v1.473h-8.65c-1.435-2.417-5.024-7.932-7.744-12.05h-.076v6.006Z" transform="translate(357.814 5.807)" fill="#fff"></path><path id="Path_1112" data-name="Path 1112" d="M155.453,17.084c0-4.08-.3-4.344-2.833-4.571V11.04h17.867c.038.642.227,3.4.416,6.233l-1.662.113a6.913,6.913,0,0,0-1.4-3.513c-.6-.642-1.851-.869-3.853-.869h-.642c-1.435,0-1.511,0-1.511,1.322v7.252h1.889c3.249,0,3.362-.227,3.74-3.1h1.662v8.877h-1.662c-.378-3.324-.491-3.551-3.74-3.551h-1.889v6.157c0,1.964.076,2.909.755,3.249a6.3,6.3,0,0,0,2.644.34c1.511,0,3.173-.227,4-1.133a10.928,10.928,0,0,0,1.851-3.891l1.662.264a48.526,48.526,0,0,1-1.322,6.686H152.28V34.006c2.909-.227,3.211-.491,3.211-4.571V17.084Z" transform="translate(377.228 5.807)" fill="#fff"></path><path id="Path_1113" data-name="Path 1113" d="M166.99,29.511c0,4.08.3,4.344,2.909,4.571v1.473H158V34.082c2.682-.227,2.984-.491,2.984-4.571V17.084c0-4.08-.3-4.344-2.833-4.571V11.04H169.9c2.946,0,4.873.34,6.346,1.284a5.629,5.629,0,0,1,2.644,4.873c0,3.324-2.078,5.288-4.873,6.384.529,1.058,1.926,3.664,3.022,5.4,1.284,2,2.115,3.286,2.72,4.042a4.61,4.61,0,0,0,2.229,1.586l-.076,1.322-1.624-.038c-5.326-.113-6.573-1.247-8.084-3.437a39.736,39.736,0,0,1-3.135-6.082c-.34-.793-.869-1.36-1.586-1.36h-.491v4.5Zm0-6.27h.529a4.585,4.585,0,0,0,2.833-.642,5.853,5.853,0,0,0,2.115-4.835c0-3.626-2.3-4.835-3.777-4.835-1.586,0-1.7.113-1.7,1.624Z" transform="translate(393.114 5.807)" fill="#fff"></path><path id="Path_1114" data-name="Path 1114" d="M166.24,28.19c.793,2.191,3.022,6.346,6.724,6.346,1.964,0,3.475-1.284,3.475-3.74,0-2.229-1.473-3.475-3.777-4.533L172.095,26c-3.1-1.435-6.61-3.4-6.61-7.4,0-4.268,3.1-7.706,8.99-7.706a13.288,13.288,0,0,1,3.475.453c.869.227,1.473.378,1.964.529.151,1.473.416,3.324.831,5.893l-1.662.264c-.831-2.493-2.153-5.175-5.137-5.175a3.218,3.218,0,0,0-3.286,3.286c0,1.889,1.473,2.984,3.891,4.08l.831.378c3.437,1.586,6.421,3.513,6.421,7.895,0,4.646-3.74,8.008-9.557,8.008a13.786,13.786,0,0,1-4.08-.642,20.573,20.573,0,0,1-2.38-.907c-.3-1.738-.793-3.777-1.247-6.27Z" transform="translate(411.278 5.389)" fill="#fff"></path><path id="Path_1115" data-name="Path 1115" d="M20.84,12.19" transform="translate(12.174 9)" fill="#fff" stroke="#fff" stroke-miterlimit="10" stroke-width="1.133"></path><path id="Path_1116" data-name="Path 1116" d="M210.564,6.58H12.14V40.5C28.987,30.982,52.1,23.163,78.13,19.007,134,10.168,182.234,21.727,185.9,44.844c2.757,17.489-20.813,36.565-56.66,48.652H210.6V6.58Z" transform="translate(-11.989 -6.58)" fill="#b32317"></path><path id="Path_1117" data-name="Path 1117" d="M154.518,33.348c-2.946-18.66-42.382-27.877-88.05-20.662-21.455,3.4-40.493,9.821-54.318,17.64V40.751L25.22,36.86l-.113-7.328,8.31,4.873,13.221-3.966-8.084,6.95,8.31,4.873-13.3-.567-8.084,6.95-.113-7.328-13.145-.567V78.185c16.318,4.911,39.7,6.006,65.008,1.964C122.826,72.972,157.464,52.008,154.518,33.348ZM86.979,65.719,69.188,63.075,54.872,72.216,58.2,61.451,40.4,58.807l19.831-4L63.56,44.037l8.952,8.31,19.831-4-14.316,9.1ZM100.5,33.5l-13.523-3.74L72.927,36.52l5.7-9.066-13.523-3.74,17.074-1.851,5.7-9.066,4.835,7.932,17.074-1.851L95.743,25.642Z" transform="translate(-11.961 3.557)" fill="#005596"></path><path id="Path_1118" data-name="Path 1118" d="M12.1,18.348h.151V18.31Z" transform="translate(-12.1 25.998)" fill="#fff"></path><path id="Path_1119" data-name="Path 1119" d="M124.23,37l1.133-3.815h.529l-.038.264a3.174,3.174,0,0,0,.34,2.3,2.051,2.051,0,0,0,1.813.831,2.771,2.771,0,0,0,1.738-.6,2.61,2.61,0,0,0,.907-1.586,2.793,2.793,0,0,0-.076-1.247,6.572,6.572,0,0,0-1.02-1.549,1.2,1.2,0,0,0-.227-.264c-1.322-1.586-1.889-2.909-1.662-4.042a3.932,3.932,0,0,1,1.511-2.531,4.581,4.581,0,0,1,2.984-.982,4.889,4.889,0,0,1,1.4.227,5.58,5.58,0,0,0,.944.227c.113,0,.227-.038.3-.038a1,1,0,0,0,.227-.189h.378l-1.209,3.4h-.529l.076-.378a2.464,2.464,0,0,0-.227-1.889,1.812,1.812,0,0,0-1.549-.642,2.586,2.586,0,0,0-1.586.529,1.958,1.958,0,0,0-.793,1.36c-.151.755.34,1.775,1.435,3.06.34.416.6.718.793.944a4.733,4.733,0,0,1,.869,1.586,3.727,3.727,0,0,1,.076,1.586,4.351,4.351,0,0,1-1.662,2.682,5.118,5.118,0,0,1-3.286,1.058,4.8,4.8,0,0,1-1.284-.189,6.074,6.074,0,0,1-1.247-.567l-.755.529h-.3Z" transform="translate(299.323 41.191)" fill="#fff"></path><path id="Path_1120" data-name="Path 1120" d="M133.9,31.555a13.254,13.254,0,0,1-2.531,1.738,4.678,4.678,0,0,1-2.115.567,2.094,2.094,0,0,1-1.775-.793,2.65,2.65,0,0,1-.378-2.078,6.936,6.936,0,0,1,.907-2.266,9.2,9.2,0,0,1,1.775-2.04,7.274,7.274,0,0,1,1.964-1.209,4.921,4.921,0,0,1,1.964-.453,2.016,2.016,0,0,1,1.36.416,1.144,1.144,0,0,1,.3,1.171,3.215,3.215,0,0,1-1.738,2.078,12.455,12.455,0,0,1-4.193,1.322,3.511,3.511,0,0,0-.151.491,1.662,1.662,0,0,0-.076.378,1.548,1.548,0,0,0,.189,1.284,1.249,1.249,0,0,0,1.1.453,3.576,3.576,0,0,0,1.4-.34,9.3,9.3,0,0,0,1.738-1.058Zm-4.155-2.191a4.7,4.7,0,0,0,2.531-1.02,3.358,3.358,0,0,0,1.284-1.926.649.649,0,0,0-.076-.491.471.471,0,0,0-.415-.151,2.63,2.63,0,0,0-1.662,1.02A9.736,9.736,0,0,0,129.747,29.364Z" transform="translate(307.14 44.635)" fill="#fff"></path><path id="Path_1121" data-name="Path 1121" d="M130.364,27.939l-.3-.34a16.861,16.861,0,0,1,2.191-1.926,2.932,2.932,0,0,1,1.473-.642.561.561,0,0,1,.491.227.769.769,0,0,1,.113.6,9.5,9.5,0,0,1-.755,1.926,5.424,5.424,0,0,1-.3.642l-.453,1.02.113.038a21.735,21.735,0,0,1,2.8-3.437,2.92,2.92,0,0,1,1.775-.982.515.515,0,0,1,.453.189.824.824,0,0,1,.076.567,2.343,2.343,0,0,1-.415.982.863.863,0,0,1-.718.378.747.747,0,0,1-.378-.076,1.3,1.3,0,0,0-.34-.038c-.529,0-1.247.567-2.153,1.738a21.666,21.666,0,0,0-2.682,4.457l-.113.189a.452.452,0,0,1-.264.264,2.823,2.823,0,0,1-.755.076,2.464,2.464,0,0,1-.642-.076.193.193,0,0,1-.151-.189v-.076l.076-.113q.51-1.133,1.36-2.946a27.039,27.039,0,0,0,1.247-2.946.56.56,0,0,0-.038-.264c-.038-.076-.113-.076-.227-.076a1.237,1.237,0,0,0-.6.264C131.006,27.372,130.7,27.636,130.364,27.939Z" transform="translate(313.738 44.662)" fill="#fff"></path><path id="Path_1122" data-name="Path 1122" d="M132.284,28.042l-.34-.378a14.775,14.775,0,0,1,2.342-2,2.9,2.9,0,0,1,1.624-.6.572.572,0,0,1,.529.264.8.8,0,0,1,.113.6,5,5,0,0,1-.3.907c-.151.378-.453.944-.831,1.738-.076.151-.189.378-.34.642a11.974,11.974,0,0,0-1.058,2.417c-.038.3-.038.529.076.642a.744.744,0,0,0,.6.227,3.75,3.75,0,0,0,2.569-1.549,6.688,6.688,0,0,0,1.7-3.324,4.717,4.717,0,0,0,.076-.793c0-.34.038-.529.038-.642a1.227,1.227,0,0,1,.453-.831,1.111,1.111,0,0,1,.831-.34.765.765,0,0,1,.718.3,1.146,1.146,0,0,1,.151.831,7.054,7.054,0,0,1-1.058,2.229,18.049,18.049,0,0,1-2.229,2.8,14.122,14.122,0,0,1-2.493,2.04,4.584,4.584,0,0,1-2.266.68,1.483,1.483,0,0,1-1.133-.416,1.537,1.537,0,0,1-.227-1.209,12.418,12.418,0,0,1,1.058-2.455l.453-.907c.227-.416.378-.755.491-1.02.113-.227.151-.416.189-.491a.277.277,0,0,0-.076-.227c-.038-.076-.113-.076-.227-.076a1.137,1.137,0,0,0-.529.227A11.549,11.549,0,0,0,132.284,28.042Z" transform="translate(320.355 44.635)" fill="#fff"></path><path id="Path_1123" data-name="Path 1123" d="M139.011,34.772a12.556,12.556,0,0,1-2.191,1.889,3.206,3.206,0,0,1-1.624.642.662.662,0,0,1-.6-.264.9.9,0,0,1-.151-.718,14.952,14.952,0,0,1,1.133-2.38c.227-.378.378-.68.491-.869q.51-.963.793-1.586a3.145,3.145,0,0,0,.3-.755.617.617,0,0,0,0-.264.288.288,0,0,0-.189-.076.934.934,0,0,0-.567.264,6.491,6.491,0,0,0-.944.793l-.264-.378a14.266,14.266,0,0,1,2.191-1.851,3.333,3.333,0,0,1,1.624-.642.83.83,0,0,1,.642.227.769.769,0,0,1,.113.6,3.8,3.8,0,0,1-.227.718c-.113.3-.378.755-.755,1.473-.642,1.1-1.1,1.964-1.4,2.569s-.453.944-.491,1.058a.31.31,0,0,0,.038.264.208.208,0,0,0,.189.113,1.1,1.1,0,0,0,.567-.227,7.842,7.842,0,0,0,1.1-.944Zm-.038-9.859a1.391,1.391,0,0,1,1.284-1.133.967.967,0,0,1,.718.3.834.834,0,0,1,.189.793,1.071,1.071,0,0,1-.453.755,1.2,1.2,0,0,1-.831.3.877.877,0,0,1-.718-.34A.781.781,0,0,1,138.973,24.913Z" transform="translate(327.642 41.191)" fill="#fff"></path><path id="Path_1124" data-name="Path 1124" d="M143.489,31.159a13.275,13.275,0,0,1-2.833,1.964,5.641,5.641,0,0,1-2.493.68,1.958,1.958,0,0,1-1.662-.68,2.344,2.344,0,0,1-.3-1.889,6.167,6.167,0,0,1,1.1-2.455,11.058,11.058,0,0,1,4.419-3.324,5.352,5.352,0,0,1,1.889-.416,1.452,1.452,0,0,1,.982.3.8.8,0,0,1,.264.755,1.335,1.335,0,0,1-.378.68,1.089,1.089,0,0,1-.755.264,1.685,1.685,0,0,1-.982-.416,1.537,1.537,0,0,0-.831-.416,1.388,1.388,0,0,0-.6.189,2.427,2.427,0,0,0-.642.491,8.248,8.248,0,0,0-1.435,2,7.277,7.277,0,0,0-.831,2.191,1.168,1.168,0,0,0,.227,1.02,1.148,1.148,0,0,0,.944.378,4.125,4.125,0,0,0,1.624-.416,10.7,10.7,0,0,0,2.04-1.322Z" transform="translate(332.38 44.69)" fill="#fff"></path><path id="Path_1125" data-name="Path 1125" d="M145.366,31.555a13.254,13.254,0,0,1-2.531,1.738,4.678,4.678,0,0,1-2.115.567,2.048,2.048,0,0,1-1.775-.793,2.5,2.5,0,0,1-.378-2.078,6.189,6.189,0,0,1,.907-2.266,8.32,8.32,0,0,1,1.775-2.04,7.273,7.273,0,0,1,1.964-1.209,4.92,4.92,0,0,1,1.964-.453,1.885,1.885,0,0,1,1.36.416,1.227,1.227,0,0,1,.3,1.171,3.215,3.215,0,0,1-1.738,2.078,12.456,12.456,0,0,1-4.193,1.322,3.5,3.5,0,0,0-.151.491,1.662,1.662,0,0,0-.076.378,1.548,1.548,0,0,0,.189,1.284,1.249,1.249,0,0,0,1.1.453,3.272,3.272,0,0,0,1.36-.34,8.234,8.234,0,0,0,1.738-1.058Zm-4.155-2.191a4.58,4.58,0,0,0,2.531-1.02,3.555,3.555,0,0,0,1.284-1.926.649.649,0,0,0-.076-.491.471.471,0,0,0-.416-.151,2.484,2.484,0,0,0-1.624,1.02A8.933,8.933,0,0,0,141.211,29.364Z" transform="translate(338.964 44.635)" fill="#fff"></path><path id="Path_1126" data-name="Path 1126" d="M142.44,37l1.1-3.815h.529l-.038.264a3.174,3.174,0,0,0,.34,2.3,2.051,2.051,0,0,0,1.813.831,2.771,2.771,0,0,0,1.738-.6,2.609,2.609,0,0,0,.907-1.586,2.356,2.356,0,0,0-.113-1.247,6.163,6.163,0,0,0-.982-1.549,1.2,1.2,0,0,0-.227-.264c-1.322-1.586-1.889-2.909-1.7-4.042a3.832,3.832,0,0,1,1.549-2.531,4.581,4.581,0,0,1,2.984-.982,5.349,5.349,0,0,1,1.435.227,5.579,5.579,0,0,0,.944.227c.113,0,.227-.038.3-.038a1,1,0,0,0,.227-.189h.416l-1.209,3.4h-.529l.076-.378a2.464,2.464,0,0,0-.227-1.889,1.765,1.765,0,0,0-1.549-.642,2.586,2.586,0,0,0-1.586.529,1.958,1.958,0,0,0-.793,1.36c-.151.755.34,1.775,1.435,3.06.34.416.6.718.793.944a4.149,4.149,0,0,1,.869,1.586,3.729,3.729,0,0,1,.076,1.586,4.351,4.351,0,0,1-1.662,2.682,5.118,5.118,0,0,1-3.286,1.058,4.8,4.8,0,0,1-1.284-.189,7.429,7.429,0,0,1-1.284-.567l-.755.529h-.3Z" transform="translate(349.899 41.191)" fill="#fff"></path><path id="Path_1127" data-name="Path 1127" d="M149.9,34.772a14.1,14.1,0,0,1-2.191,1.889,3.206,3.206,0,0,1-1.624.642.778.778,0,0,1-.642-.264.77.77,0,0,1-.113-.718,10.006,10.006,0,0,1,1.133-2.38c.189-.378.378-.68.491-.869q.51-.963.793-1.586c.189-.416.3-.642.34-.755a.31.31,0,0,0-.038-.264.288.288,0,0,0-.189-.076,1.115,1.115,0,0,0-.6.264,4.955,4.955,0,0,0-.944.793l-.264-.378a16.314,16.314,0,0,1,2.191-1.851,3.333,3.333,0,0,1,1.624-.642.83.83,0,0,1,.642.227.644.644,0,0,1,.113.6,3.809,3.809,0,0,1-.227.718c-.113.3-.378.755-.755,1.473-.6,1.1-1.058,1.964-1.36,2.569s-.453.944-.491,1.058a.561.561,0,0,0,.038.264.208.208,0,0,0,.189.113,1.1,1.1,0,0,0,.567-.227,10.967,10.967,0,0,0,1.1-.944Zm0-9.859a1.391,1.391,0,0,1,1.284-1.133.909.909,0,0,1,.718.3.942.942,0,0,1,.189.793,1.216,1.216,0,0,1-.453.755,1.2,1.2,0,0,1-.831.3.877.877,0,0,1-.718-.34A.615.615,0,0,1,149.9,24.913Z" transform="translate(357.814 41.191)" fill="#fff"></path><path id="Path_1128" data-name="Path 1128" d="M147.9,27.664a17.267,17.267,0,0,1,2.3-2,2.892,2.892,0,0,1,1.549-.6.561.561,0,0,1,.491.227.711.711,0,0,1,.113.567,5.738,5.738,0,0,1-.453,1.247c-.264.529-.755,1.435-1.511,2.757h.113a24.053,24.053,0,0,1,3.513-3.551,5.023,5.023,0,0,1,2.644-1.284.923.923,0,0,1,.68.227.626.626,0,0,1,.113.642,7.151,7.151,0,0,1-.755,1.7,2.4,2.4,0,0,1-.227.378c-.718,1.36-1.209,2.266-1.435,2.757a6.083,6.083,0,0,0-.416.907c0,.113,0,.189.038.227a.208.208,0,0,0,.189.113,1.342,1.342,0,0,0,.642-.3,8.81,8.81,0,0,0,1.02-.907l.3.378a16.535,16.535,0,0,1-2.191,1.889A3.206,3.206,0,0,1,153,33.67a.733.733,0,0,1-.642-.264.749.749,0,0,1-.113-.718,8.317,8.317,0,0,1,.944-2.078c.151-.3.3-.529.378-.68l.227-.416a18.79,18.79,0,0,0,1.133-2.342.319.319,0,0,0-.076-.264.326.326,0,0,0-.227-.113,1.909,1.909,0,0,0-.982.491,18.453,18.453,0,0,0-1.549,1.322,16.671,16.671,0,0,0-2.984,4.08c-.113.189-.189.34-.227.416l-.076.113a.536.536,0,0,1-.34.3,2.246,2.246,0,0,1-.642.076,1.578,1.578,0,0,1-.68-.113c-.151-.076-.227-.151-.189-.264v-.038a.037.037,0,0,1,.038-.038l.076-.113c.3-.567.68-1.36,1.209-2.3a20.234,20.234,0,0,0,1.662-3.551.563.563,0,0,0,0-.264.319.319,0,0,0-.227-.076.955.955,0,0,0-.529.264,7.509,7.509,0,0,0-.907.793Z" transform="translate(362.418 44.635)" fill="#fff"></path><path id="Path_1129" data-name="Path 1129" d="M157.356,31.159a13.272,13.272,0,0,1-2.833,1.964,5.659,5.659,0,0,1-2.531.68,2.007,2.007,0,0,1-1.662-.68,2.344,2.344,0,0,1-.3-1.889,5.683,5.683,0,0,1,1.1-2.455,11.058,11.058,0,0,1,4.419-3.324,5.53,5.53,0,0,1,1.889-.416,1.452,1.452,0,0,1,.982.3.8.8,0,0,1,.264.755,1.113,1.113,0,0,1-1.171.944,1.5,1.5,0,0,1-.944-.416,1.666,1.666,0,0,0-.831-.416,1.388,1.388,0,0,0-.6.189,1.946,1.946,0,0,0-.642.491,9.482,9.482,0,0,0-1.473,2,7.278,7.278,0,0,0-.831,2.191,1.3,1.3,0,0,0,.189,1.02,1.148,1.148,0,0,0,.944.378,3.976,3.976,0,0,0,1.624-.416,12.024,12.024,0,0,0,2.04-1.322Z" transform="translate(370.792 44.69)" fill="#fff"></path><path id="Path_1130" data-name="Path 1130" d="M159.19,31.555a13.255,13.255,0,0,1-2.531,1.738,4.679,4.679,0,0,1-2.115.567,2.048,2.048,0,0,1-1.775-.793,2.815,2.815,0,0,1-.378-2.078,6.935,6.935,0,0,1,.907-2.266,8.32,8.32,0,0,1,1.775-2.04,7.275,7.275,0,0,1,1.964-1.209A4.921,4.921,0,0,1,159,25.02a2.016,2.016,0,0,1,1.36.416,1.227,1.227,0,0,1,.3,1.171,3.215,3.215,0,0,1-1.738,2.078,12.455,12.455,0,0,1-4.193,1.322,3.507,3.507,0,0,0-.151.491,1.662,1.662,0,0,0-.076.378,1.548,1.548,0,0,0,.189,1.284,1.249,1.249,0,0,0,1.1.453,3.576,3.576,0,0,0,1.4-.34,8.234,8.234,0,0,0,1.738-1.058Zm-4.155-2.191a4.7,4.7,0,0,0,2.531-1.02,3.358,3.358,0,0,0,1.284-1.926.649.649,0,0,0-.076-.491.471.471,0,0,0-.416-.151,2.484,2.484,0,0,0-1.624,1.02A8.932,8.932,0,0,0,155.035,29.364Z" transform="translate(377.42 44.635)" fill="#fff"></path><path id="Path_1131" data-name="Path 1131" d="M156.53,36.806l.189-.567h.038q2.04-.057,2.493-1.36L162.423,26l-3.249,1.624-.151-.567.076-.038c2.569-1.322,4.533-2.38,5.817-3.173h.34l-3.815,10.765a2.443,2.443,0,0,0-.151.491l-.113.453c-.076.416.567.6,1.889.642h.113l-.189.567c-1.1-.038-1.889-.038-2.3-.076-.416,0-.755-.038-.944-.038-.491,0-.982,0-1.549.038A11.125,11.125,0,0,1,156.53,36.806Z" transform="translate(389.032 41.385)" fill="#fff"></path><path id="Path_1132" data-name="Path 1132" d="M163.471,30.536a7.034,7.034,0,0,1-1.171-1.851,2.683,2.683,0,0,1-.151-1.624,3.362,3.362,0,0,1,1.511-2.3,4.946,4.946,0,0,1,3.022-.907,3.491,3.491,0,0,1,2.417.718,1.883,1.883,0,0,1,.6,1.889,3.137,3.137,0,0,1-1.133,1.889,9.379,9.379,0,0,1-2.72,1.586,8.415,8.415,0,0,1,1.36,1.964,2.67,2.67,0,0,1,.189,1.624,3.779,3.779,0,0,1-1.662,2.455A5.332,5.332,0,0,1,162.526,37a3.49,3.49,0,0,1-2.455-.793,2.093,2.093,0,0,1-.6-2.04,3.614,3.614,0,0,1,1.209-2.078A10.667,10.667,0,0,1,163.471,30.536Zm.491.453a5.571,5.571,0,0,0-1.964,1.4,3.454,3.454,0,0,0-.907,1.813,2.064,2.064,0,0,0,.3,1.624,1.782,1.782,0,0,0,1.473.6,2.167,2.167,0,0,0,1.549-.6,2.607,2.607,0,0,0,.831-1.549,2.829,2.829,0,0,0-.151-1.473A7.506,7.506,0,0,0,163.962,30.989Zm1.511-1.473a4.727,4.727,0,0,0,1.851-1.247,3.892,3.892,0,0,0,.944-1.775,1.631,1.631,0,0,0-.3-1.435,1.821,1.821,0,0,0-1.4-.529,2.586,2.586,0,0,0-1.586.529,2.34,2.34,0,0,0-.831,1.4,2.579,2.579,0,0,0,.189,1.4A5,5,0,0,0,165.473,29.516Z" transform="translate(397.049 41.385)" fill="#fff"></path><path id="Path_1133" data-name="Path 1133" d="M169.176,30.735A8.783,8.783,0,0,1,168,31.15a4.688,4.688,0,0,1-1.02.113,2.39,2.39,0,0,1-2-.869,2.868,2.868,0,0,1-.416-2.229,5.162,5.162,0,0,1,1.813-3.06,5.082,5.082,0,0,1,3.362-1.247,3.248,3.248,0,0,1,2.644,1.058,3.553,3.553,0,0,1,.529,2.946,10.229,10.229,0,0,1-3.588,6.044,13.482,13.482,0,0,1-7.177,3.1v-.567a11.016,11.016,0,0,0,5.779-3.211,11.283,11.283,0,0,0,2.984-5.893,3.751,3.751,0,0,0-.076-2.115,1.312,1.312,0,0,0-1.322-.68,2.464,2.464,0,0,0-1.851.982,5.554,5.554,0,0,0-1.1,2.531,2.815,2.815,0,0,0,.113,1.738,1.264,1.264,0,0,0,1.171.6,4.206,4.206,0,0,0,.642-.076,6.662,6.662,0,0,0,.831-.264Z" transform="translate(404.64 41.412)" fill="#fff"></path><path id="Path_1134" data-name="Path 1134" d="M165.523,32.2a13.721,13.721,0,0,1,1.02-3.286,11.422,11.422,0,0,1,1.7-2.757,6.653,6.653,0,0,1,2.078-1.7,4.842,4.842,0,0,1,2.266-.6,2.388,2.388,0,0,1,2.3,1.284,5.768,5.768,0,0,1,.227,3.7,12.715,12.715,0,0,1-.793,2.606A16.917,16.917,0,0,1,173,33.9a8.332,8.332,0,0,1-2.3,2.3A4.757,4.757,0,0,1,168.13,37a2.363,2.363,0,0,1-2.3-1.284A5.417,5.417,0,0,1,165.523,32.2Zm1.738,1.322a3.94,3.94,0,0,0,.038,2.153,1.106,1.106,0,0,0,1.133.68,2.194,2.194,0,0,0,1.473-.68,8.819,8.819,0,0,0,1.435-2.115,32.436,32.436,0,0,0,1.322-3.135,18.609,18.609,0,0,0,.793-2.984,4.173,4.173,0,0,0,0-2.191,1.038,1.038,0,0,0-1.058-.68,2.035,2.035,0,0,0-1.435.6,6.663,6.663,0,0,0-1.4,1.926,23.381,23.381,0,0,0-1.435,3.249A16.765,16.765,0,0,0,167.261,33.52Z" transform="translate(413.619 41.385)" fill="#fff"></path><path id="Path_1135" data-name="Path 1135" d="M78.877,37.528l-1.1-2.871H73.211l-1.058,2.871H68.98L74.419,23.59h2.3l5.439,13.938Zm-2.909-8.2a10.335,10.335,0,0,1-.416-1.4h-.076a10.139,10.139,0,0,1-.453,1.4l-.982,2.8H76.95Z" transform="translate(145.875 40.662)" fill="#fff"></path><path id="Path_1136" data-name="Path 1136" d="M79.035,38.035a7.347,7.347,0,0,1-4.193-1.171l-.3-3.211a6.929,6.929,0,0,0,4.344,1.586c1.247,0,1.926-.529,1.926-1.36s-.491-1.247-2.191-1.851c-2.418-.831-3.664-2.38-3.664-4.306,0-2.342,1.738-4.193,4.8-4.193a6.464,6.464,0,0,1,3.4.831l-.264,2.833a5.383,5.383,0,0,0-2.871-.869c-1.209,0-1.738.529-1.738,1.171s.491,1.058,2.115,1.586c2.191.755,3.853,2.266,3.853,4.457C84.172,36.26,82.435,38.035,79.035,38.035Z" transform="translate(161.317 40.496)" fill="#fff"></path><path id="Path_1137" data-name="Path 1137" d="M83.705,38.035a7.347,7.347,0,0,1-4.193-1.171l-.3-3.211a6.929,6.929,0,0,0,4.344,1.586c1.247,0,1.926-.529,1.926-1.36s-.491-1.247-2.191-1.851c-2.417-.831-3.664-2.38-3.664-4.306,0-2.342,1.738-4.193,4.8-4.193a6.2,6.2,0,0,1,3.362.831l-.264,2.833a5.383,5.383,0,0,0-2.871-.869c-1.209,0-1.775.529-1.775,1.171s.491,1.058,2.115,1.586c2.191.755,3.853,2.266,3.853,4.457C88.88,36.26,87.142,38.035,83.705,38.035Z" transform="translate(174.288 40.496)" fill="#fff"></path><path id="Path_1138" data-name="Path 1138" d="M91.361,38.007A7.237,7.237,0,1,1,98.8,30.755,7.242,7.242,0,0,1,91.361,38.007Zm0-11.559a4.124,4.124,0,0,0-4.042,4.268,4.05,4.05,0,1,0,8.083,0A4.078,4.078,0,0,0,91.361,26.449Z" transform="translate(187.369 40.524)" fill="#fff"></path><path id="Path_1139" data-name="Path 1139" d="M101.329,27.307a6.111,6.111,0,0,0-3.286-.869,4.3,4.3,0,0,0-4.533,4.344c0,2.606,2,4.306,4.646,4.306a6.238,6.238,0,0,0,3.4-.831l-.264,3.022a7.314,7.314,0,0,1-3.626.755c-3.626,0-7.555-2.493-7.555-7.252s3.928-7.252,7.555-7.252a8.453,8.453,0,0,1,3.928.831Z" transform="translate(204.56 40.496)" fill="#fff"></path><path id="Path_1140" data-name="Path 1140" d="M95.52,37.445V23.62h3.362V37.445Z" transform="translate(219.586 40.746)" fill="#fff"></path><path id="Path_1141" data-name="Path 1141" d="M108.529,37.528l-1.1-2.871H102.9l-1.058,2.871H98.67l5.439-13.938h2.342l5.439,13.938Zm-2.909-8.2c-.151-.378-.3-.907-.453-1.4h-.038a10.139,10.139,0,0,1-.453,1.4l-.982,2.8H106.6Z" transform="translate(228.335 40.662)" fill="#fff"></path><path id="Path_1142" data-name="Path 1142" d="M111.207,26.3V37.445h-3.324V26.264H103.69V23.62h11.672V26.3h-4.155Z" transform="translate(242.277 40.746)" fill="#fff"></path><path id="Path_1143" data-name="Path 1143" d="M109.04,37.445V23.62H112.4V37.445Z" transform="translate(257.135 40.746)" fill="#fff"></path><path id="Path_1144" data-name="Path 1144" d="M119.781,38.007a7.237,7.237,0,1,1,7.441-7.252A7.242,7.242,0,0,1,119.781,38.007Zm0-11.559a4.124,4.124,0,0,0-4.042,4.268,4.05,4.05,0,1,0,8.083,0A4.124,4.124,0,0,0,119.781,26.449Z" transform="translate(266.3 40.524)" fill="#fff"></path><path id="Path_1145" data-name="Path 1145" d="M129.906,37.6,124.543,31.7c-.869-.944-1.851-2.115-2.569-3.06l-.038.038c.038.982.076,2.04.076,2.909v5.855H118.65V23.62h2.72l4.684,5.175c.642.718,1.624,1.851,2.266,2.644l.038-.038c-.038-.831-.076-1.7-.076-2.569V23.62h3.362V37.6h-1.738Z" transform="translate(283.826 40.746)" fill="#fff"></path><path id="Path_1146" data-name="Path 1146" d="M170.728,26.581h-1.4V26.09h3.324v.491h-1.36v4h-.6v-4Z" transform="translate(424.582 47.606)" fill="#fff"></path><path id="Path_1147" data-name="Path 1147" d="M174.211,28.593c-.038-.642-.076-1.4-.076-1.926h0q-.227.793-.567,1.7l-.793,2.191h-.453l-.755-2.153c-.189-.642-.378-1.209-.491-1.738h0c0,.567-.038,1.322-.076,2l-.113,1.926h-.567l.3-4.5h.755l.755,2.191c.189.567.34,1.058.453,1.511h0a11.523,11.523,0,0,1,.491-1.511l.793-2.191h.755l.3,4.5h-.567Z" transform="translate(427.332 47.633)" fill="#fff"></path></g></g></g></g></svg>